<svg width="25" height="25" viewBox="0 0 25 25" fill="none" xmlns="http://www.w3.org/2000/svg">
<path d="M5.12823 4.6875H19.872C20.0192 4.6875 20.1428 4.7375 20.2428 4.8375C20.3428 4.9375 20.3928 5.06146 20.3928 5.20937C20.3928 5.35729 20.3428 5.4809 20.2428 5.58021C20.1428 5.67951 20.0192 5.72917 19.872 5.72917H5.12823C4.981 5.72917 4.85739 5.67917 4.75739 5.57917C4.65739 5.47917 4.60739 5.35521 4.60739 5.20729C4.60739 5.05938 4.65739 4.93576 4.75739 4.83646C4.85739 4.73715 4.981 4.6875 5.12823 4.6875ZM5.52927 20.3125C5.29038 20.3125 5.09038 20.2319 4.92927 20.0708C4.76816 19.9097 4.6876 19.7097 4.6876 19.4708V14.0625H4.2251C3.96121 14.0625 3.74211 13.9566 3.56781 13.7448C3.39281 13.533 3.34003 13.2958 3.40948 13.0333L4.45114 8.46562C4.4942 8.27535 4.5942 8.1191 4.75114 7.99687C4.90809 7.87396 5.08656 7.8125 5.28656 7.8125H19.7136C19.9136 7.8125 20.0921 7.87361 20.2491 7.99583C20.406 8.11875 20.506 8.275 20.5491 8.46458L21.5907 13.0333C21.6602 13.2958 21.6074 13.533 21.4324 13.7448C21.2574 13.9566 21.0386 14.0625 20.7761 14.0625H20.3126V19.7917C20.3126 19.9396 20.2626 20.0632 20.1626 20.1625C20.0626 20.2625 19.9386 20.3125 19.7907 20.3125C19.6428 20.3125 19.5192 20.2625 19.4199 20.1625C19.3206 20.0632 19.2709 19.9396 19.2709 19.7917V14.0625H14.0626V19.4708C14.0626 19.7097 13.982 19.9097 13.8209 20.0708C13.6598 20.2319 13.4598 20.3125 13.2209 20.3125H5.52927ZM5.72927 19.2708H13.0209V14.0625H5.72927V19.2708ZM4.45843 13.0208H20.5418L19.5751 8.85417H5.4251L4.45843 13.0208Z" fill="#583C28"/>
</svg>
